<svg id="visual" viewBox="0 0 900 150" width="900" height="150" xmlns="http://www.w3.org/2000/svg" xmlns:xlink="http://www.w3.org/1999/xlink" version="1.1"><path d="M0 62L6.5 60.3C13 58.7 26 55.3 39 64.5C52 73.7 65 95.3 78 105.5C91 115.7 104 114.3 117.2 108.5C130.3 102.7 143.7 92.3 156.8 82.8C170 73.3 183 64.7 196 64.5C209 64.3 222 72.7 235 75.5C248 78.3 261 75.7 274 68.3C287 61 300 49 313 49.7C326 50.3 339 63.7 352 77.7C365 91.7 378 106.3 391 108C404 109.7 417 98.3 430.2 93C443.3 87.7 456.7 88.3 469.8 81.3C483 74.3 496 59.7 509 61.3C522 63 535 81 548 90.2C561 99.3 574 99.7 587 95.8C600 92 613 84 626 79.2C639 74.3 652 72.7 665 70.5C678 68.3 691 65.7 704 62.2C717 58.7 730 54.3 743.2 64.2C756.3 74 769.7 98 782.8 95.2C796 92.3 809 62.7 822 58C835 53.3 848 73.7 861 85.7C874 97.7 887 101.3 893.5 103.2L900 105L900 151L893.5 151C887 151 874 151 861 151C848 151 835 151 822 151C809 151 796 151 782.8 151C769.7 151 756.3 151 743.2 151C730 151 717 151 704 151C691 151 678 151 665 151C652 151 639 151 626 151C613 151 600 151 587 151C574 151 561 151 548 151C535 151 522 151 509 151C496 151 483 151 469.8 151C456.7 151 443.3 151 430.2 151C417 151 404 151 391 151C378 151 365 151 352 151C339 151 326 151 313 151C300 151 287 151 274 151C261 151 248 151 235 151C222 151 209 151 196 151C183 151 170 151 156.8 151C143.7 151 130.3 151 117.2 151C104 151 91 151 78 151C65 151 52 151 39 151C26 151 13 151 6.5 151L0 151Z" fill="#581c87"></path><path d="M0 105L6.5 97.5C13 90 26 75 39 77C52 79 65 98 78 109.2C91 120.3 104 123.7 117.2 118.5C130.3 113.3 143.7 99.7 156.8 98.3C170 97 183 108 196 115.2C209 122.3 222 125.7 235 118.2C248 110.7 261 92.3 274 89.7C287 87 300 100 313 102.3C326 104.7 339 96.3 352 86.8C365 77.3 378 66.7 391 73.2C404 79.7 417 103.3 430.2 104.7C443.3 106 456.7 85 469.8 85.3C483 85.7 496 107.3 509 117C522 126.7 535 124.3 548 114.8C561 105.3 574 88.7 587 89.7C600 90.7 613 109.3 626 106C639 102.7 652 77.3 665 66.3C678 55.3 691 58.7 704 59.2C717 59.7 730 57.3 743.2 65C756.3 72.7 769.7 90.3 782.8 100.8C796 111.3 809 114.7 822 107.2C835 99.7 848 81.3 861 78.7C874 76 887 89 893.5 95.5L900 102L900 151L893.5 151C887 151 874 151 861 151C848 151 835 151 822 151C809 151 796 151 782.8 151C769.7 151 756.3 151 743.2 151C730 151 717 151 704 151C691 151 678 151 665 151C652 151 639 151 626 151C613 151 600 151 587 151C574 151 561 151 548 151C535 151 522 151 509 151C496 151 483 151 469.8 151C456.7 151 443.3 151 430.2 151C417 151 404 151 391 151C378 151 365 151 352 151C339 151 326 151 313 151C300 151 287 151 274 151C261 151 248 151 235 151C222 151 209 151 196 151C183 151 170 151 156.8 151C143.7 151 130.3 151 117.2 151C104 151 91 151 78 151C65 151 52 151 39 151C26 151 13 151 6.5 151L0 151Z" fill="#985dcf"></path><path d="M0 116L6.5 119C13 122 26 128 39 130.7C52 133.3 65 132.7 78 132.3C91 132 104 132 117.2 129.7C130.3 127.3 143.7 122.7 156.8 122.5C170 122.3 183 126.7 196 127.7C209 128.7 222 126.3 235 122.5C248 118.7 261 113.3 274 110.3C287 107.3 300 106.7 313 106.7C326 106.7 339 107.3 352 103.5C365 99.7 378 91.3 391 89.8C404 88.3 417 93.7 430.2 97.5C443.3 101.3 456.7 103.7 469.8 101.7C483 99.7 496 93.3 509 94.8C522 96.3 535 105.7 548 104.8C561 104 574 93 587 93.3C600 93.7 613 105.3 626 104C639 102.7 652 88.3 665 89C678 89.7 691 105.3 704 108C717 110.7 730 100.3 743.2 95.7C756.3 91 769.7 92 782.8 93.5C796 95 809 97 822 93.7C835 90.3 848 81.7 861 87.5C874 93.3 887 113.7 893.5 123.8L900 134L900 151L893.5 151C887 151 874 151 861 151C848 151 835 151 822 151C809 151 796 151 782.8 151C769.7 151 756.3 151 743.2 151C730 151 717 151 704 151C691 151 678 151 665 151C652 151 639 151 626 151C613 151 600 151 587 151C574 151 561 151 548 151C535 151 522 151 509 151C496 151 483 151 469.8 151C456.7 151 443.3 151 430.2 151C417 151 404 151 391 151C378 151 365 151 352 151C339 151 326 151 313 151C300 151 287 151 274 151C261 151 248 151 235 151C222 151 209 151 196 151C183 151 170 151 156.8 151C143.7 151 130.3 151 117.2 151C104 151 91 151 78 151C65 151 52 151 39 151C26 151 13 151 6.5 151L0 151Z" fill="#c084fc"></path><path d="M0 132L6.5 133C13 134 26 136 39 134.7C52 133.3 65 128.7 78 122.7C91 116.7 104 109.3 117.2 105.3C130.3 101.3 143.7 100.7 156.8 105.8C170 111 183 122 196 120.7C209 119.3 222 105.7 235 100.8C248 96 261 100 274 100C287 100 300 96 313 95.8C326 95.7 339 99.3 352 101.2C365 103 378 103 391 108.8C404 114.7 417 126.3 430.2 129.8C443.3 133.3 456.7 128.7 469.8 123C483 117.3 496 110.7 509 106.3C522 102 535 100 548 100.2C561 100.3 574 102.7 587 106.8C600 111 613 117 626 121.3C639 125.7 652 128.3 665 123.3C678 118.3 691 105.7 704 103.8C717 102 730 111 743.2 118.7C756.3 126.3 769.7 132.7 782.8 129.2C796 125.7 809 112.3 822 110.7C835 109 848 119 861 125C874 131 887 133 893.5 134L900 135L900 151L893.5 151C887 151 874 151 861 151C848 151 835 151 822 151C809 151 796 151 782.8 151C769.7 151 756.3 151 743.2 151C730 151 717 151 704 151C691 151 678 151 665 151C652 151 639 151 626 151C613 151 600 151 587 151C574 151 561 151 548 151C535 151 522 151 509 151C496 151 483 151 469.8 151C456.7 151 443.3 151 430.2 151C417 151 404 151 391 151C378 151 365 151 352 151C339 151 326 151 313 151C300 151 287 151 274 151C261 151 248 151 235 151C222 151 209 151 196 151C183 151 170 151 156.8 151C143.7 151 130.3 151 117.2 151C104 151 91 151 78 151C65 151 52 151 39 151C26 151 13 151 6.5 151L0 151Z" fill="#985dcf"></path><path d="M0 131L6.5 128.7C13 126.3 26 121.7 39 123.8C52 126 65 135 78 136.8C91 138.7 104 133.3 117.2 129.2C130.3 125 143.7 122 156.8 124.7C170 127.3 183 135.7 196 139.5C209 143.3 222 142.7 235 142.8C248 143 261 144 274 141.7C287 139.3 300 133.7 313 128.7C326 123.7 339 119.3 352 120C365 120.7 378 126.3 391 127.3C404 128.3 417 124.7 430.2 124.7C443.3 124.7 456.7 128.3 469.8 127.5C483 126.7 496 121.3 509 123.8C522 126.3 535 136.7 548 137.5C561 138.3 574 129.7 587 123.8C600 118 613 115 626 119.5C639 124 652 136 665 139.5C678 143 691 138 704 136.3C717 134.7 730 136.3 743.2 136C756.3 135.7 769.7 133.3 782.8 130.3C796 127.3 809 123.7 822 126.2C835 128.7 848 137.3 861 138.7C874 140 887 134 893.5 131L900 128L900 151L893.5 151C887 151 874 151 861 151C848 151 835 151 822 151C809 151 796 151 782.8 151C769.7 151 756.3 151 743.2 151C730 151 717 151 704 151C691 151 678 151 665 151C652 151 639 151 626 151C613 151 600 151 587 151C574 151 561 151 548 151C535 151 522 151 509 151C496 151 483 151 469.8 151C456.7 151 443.3 151 430.2 151C417 151 404 151 391 151C378 151 365 151 352 151C339 151 326 151 313 151C300 151 287 151 274 151C261 151 248 151 235 151C222 151 209 151 196 151C183 151 170 151 156.8 151C143.7 151 130.3 151 117.2 151C104 151 91 151 78 151C65 151 52 151 39 151C26 151 13 151 6.5 151L0 151Z" fill="#581c87"></path></svg>