<svg id="visual" viewBox="0 0 1400 200" width="1400" height="200" xmlns="http://www.w3.org/2000/svg" xmlns:xlink="http://www.w3.org/1999/xlink" version="1.1"><path d="M0 107L15.5 104.8C31 102.7 62 98.3 93.2 99C124.3 99.7 155.7 105.3 186.8 107.2C218 109 249 107 280 110.8C311 114.7 342 124.3 373.2 119.8C404.3 115.3 435.7 96.7 466.8 90C498 83.3 529 88.7 560 89.3C591 90 622 86 653.2 92.3C684.3 98.7 715.7 115.3 746.8 114C778 112.7 809 93.3 840 82.3C871 71.3 902 68.7 933.2 77.3C964.3 86 995.7 106 1026.8 120.2C1058 134.3 1089 142.7 1120 134.3C1151 126 1182 101 1213.2 89C1244.3 77 1275.7 78 1306.8 82C1338 86 1369 93 1384.5 96.5L1400 100L1400 0L1384.5 0C1369 0 1338 0 1306.8 0C1275.7 0 1244.3 0 1213.2 0C1182 0 1151 0 1120 0C1089 0 1058 0 1026.8 0C995.7 0 964.3 0 933.2 0C902 0 871 0 840 0C809 0 778 0 746.8 0C715.7 0 684.3 0 653.2 0C622 0 591 0 560 0C529 0 498 0 466.8 0C435.7 0 404.3 0 373.2 0C342 0 311 0 280 0C249 0 218 0 186.8 0C155.7 0 124.3 0 93.2 0C62 0 31 0 15.5 0L0 0Z" fill="#581c87"></path><path d="M0 140L15.5 138.2C31 136.3 62 132.7 93.2 133.2C124.3 133.7 155.7 138.3 186.8 126C218 113.7 249 84.3 280 77.2C311 70 342 85 373.2 94.7C404.3 104.3 435.7 108.7 466.8 107.3C498 106 529 99 560 94.2C591 89.3 622 86.7 653.2 84.5C684.3 82.3 715.7 80.7 746.8 80.8C778 81 809 83 840 93C871 103 902 121 933.2 125.5C964.3 130 995.7 121 1026.8 108.5C1058 96 1089 80 1120 85.8C1151 91.7 1182 119.3 1213.2 117.8C1244.3 116.3 1275.7 85.7 1306.8 82.2C1338 78.7 1369 102.3 1384.5 114.2L1400 126L1400 0L1384.5 0C1369 0 1338 0 1306.8 0C1275.7 0 1244.3 0 1213.2 0C1182 0 1151 0 1120 0C1089 0 1058 0 1026.8 0C995.7 0 964.3 0 933.2 0C902 0 871 0 840 0C809 0 778 0 746.8 0C715.7 0 684.3 0 653.2 0C622 0 591 0 560 0C529 0 498 0 466.8 0C435.7 0 404.3 0 373.2 0C342 0 311 0 280 0C249 0 218 0 186.8 0C155.7 0 124.3 0 93.2 0C62 0 31 0 15.5 0L0 0Z" fill="#8b50c0"></path><path d="M0 109L15.5 108.7C31 108.3 62 107.7 93.2 104.7C124.3 101.7 155.7 96.3 186.8 97.3C218 98.3 249 105.7 280 103.7C311 101.7 342 90.3 373.2 82.7C404.3 75 435.7 71 466.8 71.8C498 72.7 529 78.3 560 84C591 89.7 622 95.3 653.2 101.3C684.3 107.3 715.7 113.7 746.8 105.3C778 97 809 74 840 66.7C871 59.3 902 67.7 933.2 67.7C964.3 67.7 995.7 59.3 1026.8 58.7C1058 58 1089 65 1120 65.3C1151 65.7 1182 59.3 1213.2 67.2C1244.3 75 1275.7 97 1306.8 108.5C1338 120 1369 121 1384.5 121.5L1400 122L1400 0L1384.5 0C1369 0 1338 0 1306.8 0C1275.7 0 1244.3 0 1213.2 0C1182 0 1151 0 1120 0C1089 0 1058 0 1026.8 0C995.7 0 964.3 0 933.2 0C902 0 871 0 840 0C809 0 778 0 746.8 0C715.7 0 684.3 0 653.2 0C622 0 591 0 560 0C529 0 498 0 466.8 0C435.7 0 404.3 0 373.2 0C342 0 311 0 280 0C249 0 218 0 186.8 0C155.7 0 124.3 0 93.2 0C62 0 31 0 15.5 0L0 0Z" fill="#c084fc"></path><path d="M0 82L15.5 76C31 70 62 58 93.2 51.7C124.3 45.3 155.7 44.7 186.8 43.7C218 42.7 249 41.3 280 49C311 56.7 342 73.3 373.2 76C404.3 78.7 435.7 67.3 466.8 57.7C498 48 529 40 560 42.2C591 44.3 622 56.7 653.2 64.8C684.3 73 715.7 77 746.8 72C778 67 809 53 840 44.8C871 36.7 902 34.3 933.2 33.3C964.3 32.3 995.7 32.7 1026.8 36.7C1058 40.7 1089 48.3 1120 57C1151 65.7 1182 75.3 1213.2 73.3C1244.3 71.3 1275.7 57.7 1306.8 51.3C1338 45 1369 46 1384.5 46.5L1400 47L1400 0L1384.5 0C1369 0 1338 0 1306.8 0C1275.7 0 1244.3 0 1213.2 0C1182 0 1151 0 1120 0C1089 0 1058 0 1026.8 0C995.7 0 964.3 0 933.2 0C902 0 871 0 840 0C809 0 778 0 746.8 0C715.7 0 684.3 0 653.2 0C622 0 591 0 560 0C529 0 498 0 466.8 0C435.7 0 404.3 0 373.2 0C342 0 311 0 280 0C249 0 218 0 186.8 0C155.7 0 124.3 0 93.2 0C62 0 31 0 15.5 0L0 0Z" fill="#c084fc"></path><path d="M0 51L15.5 46.5C31 42 62 33 93.2 28.8C124.3 24.7 155.7 25.3 186.8 24.7C218 24 249 22 280 21C311 20 342 20 373.2 23.7C404.3 27.3 435.7 34.7 466.8 35.3C498 36 529 30 560 33.2C591 36.3 622 48.7 653.2 48.5C684.3 48.3 715.7 35.7 746.8 32.2C778 28.7 809 34.3 840 35.2C871 36 902 32 933.2 36C964.3 40 995.7 52 1026.8 54.2C1058 56.3 1089 48.7 1120 49.7C1151 50.7 1182 60.3 1213.2 63.5C1244.3 66.7 1275.7 63.3 1306.8 57.7C1338 52 1369 44 1384.5 40L1400 36L1400 0L1384.5 0C1369 0 1338 0 1306.8 0C1275.7 0 1244.3 0 1213.2 0C1182 0 1151 0 1120 0C1089 0 1058 0 1026.8 0C995.7 0 964.3 0 933.2 0C902 0 871 0 840 0C809 0 778 0 746.8 0C715.7 0 684.3 0 653.2 0C622 0 591 0 560 0C529 0 498 0 466.8 0C435.7 0 404.3 0 373.2 0C342 0 311 0 280 0C249 0 218 0 186.8 0C155.7 0 124.3 0 93.2 0C62 0 31 0 15.5 0L0 0Z" fill="#8b50c0"></path><path d="M0 12L15.5 14.2C31 16.3 62 20.7 93.2 25.8C124.3 31 155.7 37 186.8 40.2C218 43.3 249 43.7 280 39.8C311 36 342 28 373.2 27.2C404.3 26.3 435.7 32.7 466.8 33.2C498 33.7 529 28.3 560 29.3C591 30.3 622 37.7 653.2 37.2C684.3 36.7 715.7 28.3 746.8 27.2C778 26 809 32 840 33C871 34 902 30 933.2 28C964.3 26 995.7 26 1026.8 28.8C1058 31.7 1089 37.3 1120 34.5C1151 31.7 1182 20.3 1213.2 20.5C1244.3 20.7 1275.7 32.3 1306.8 35.7C1338 39 1369 34 1384.5 31.5L1400 29L1400 0L1384.5 0C1369 0 1338 0 1306.8 0C1275.7 0 1244.3 0 1213.2 0C1182 0 1151 0 1120 0C1089 0 1058 0 1026.8 0C995.7 0 964.3 0 933.2 0C902 0 871 0 840 0C809 0 778 0 746.8 0C715.7 0 684.3 0 653.2 0C622 0 591 0 560 0C529 0 498 0 466.8 0C435.7 0 404.3 0 373.2 0C342 0 311 0 280 0C249 0 218 0 186.8 0C155.7 0 124.3 0 93.2 0C62 0 31 0 15.5 0L0 0Z" fill="#581c87"></path></svg>