<svg id="visual" viewBox="0 0 900 100" width="900" height="100" xmlns="http://www.w3.org/2000/svg" xmlns:xlink="http://www.w3.org/1999/xlink" version="1.1"><path d="M0 15L6.5 21C13 27 26 39 39 39.7C52 40.3 65 29.7 78 26C91 22.3 104 25.7 117.2 26.2C130.3 26.7 143.7 24.3 156.8 23C170 21.7 183 21.3 196 22.7C209 24 222 27 235 27C248 27 261 24 274 27C287 30 300 39 313 39.2C326 39.3 339 30.7 352 22.8C365 15 378 8 391 8C404 8 417 15 430.2 16.7C443.3 18.3 456.7 14.7 469.8 15.8C483 17 496 23 509 25.5C522 28 535 27 548 27.8C561 28.7 574 31.3 587 31.7C600 32 613 30 626 28.2C639 26.3 652 24.7 665 27.8C678 31 691 39 704 36.2C717 33.3 730 19.7 743.2 18.8C756.3 18 769.7 30 782.8 33.2C796 36.3 809 30.7 822 27.3C835 24 848 23 861 23C874 23 887 24 893.5 24.5L900 25L900 101L893.5 101C887 101 874 101 861 101C848 101 835 101 822 101C809 101 796 101 782.8 101C769.7 101 756.3 101 743.2 101C730 101 717 101 704 101C691 101 678 101 665 101C652 101 639 101 626 101C613 101 600 101 587 101C574 101 561 101 548 101C535 101 522 101 509 101C496 101 483 101 469.8 101C456.7 101 443.3 101 430.2 101C417 101 404 101 391 101C378 101 365 101 352 101C339 101 326 101 313 101C300 101 287 101 274 101C261 101 248 101 235 101C222 101 209 101 196 101C183 101 170 101 156.8 101C143.7 101 130.3 101 117.2 101C104 101 91 101 78 101C65 101 52 101 39 101C26 101 13 101 6.5 101L0 101Z" fill="#581c87"></path><path d="M0 55L6.5 56.3C13 57.7 26 60.3 39 56C52 51.7 65 40.3 78 36.5C91 32.7 104 36.3 117.2 39.8C130.3 43.3 143.7 46.7 156.8 50.3C170 54 183 58 196 58.3C209 58.7 222 55.3 235 51.5C248 47.7 261 43.3 274 42.3C287 41.3 300 43.7 313 45.7C326 47.7 339 49.3 352 48.8C365 48.3 378 45.7 391 40C404 34.3 417 25.7 430.2 29C443.3 32.3 456.7 47.7 469.8 50C483 52.3 496 41.7 509 33.8C522 26 535 21 548 25.7C561 30.3 574 44.7 587 45.8C600 47 613 35 626 33.3C639 31.7 652 40.3 665 43.3C678 46.3 691 43.7 704 45C717 46.3 730 51.7 743.2 48.7C756.3 45.7 769.7 34.3 782.8 28.7C796 23 809 23 822 24.5C835 26 848 29 861 30.2C874 31.3 887 30.7 893.5 30.3L900 30L900 101L893.5 101C887 101 874 101 861 101C848 101 835 101 822 101C809 101 796 101 782.8 101C769.7 101 756.3 101 743.2 101C730 101 717 101 704 101C691 101 678 101 665 101C652 101 639 101 626 101C613 101 600 101 587 101C574 101 561 101 548 101C535 101 522 101 509 101C496 101 483 101 469.8 101C456.7 101 443.3 101 430.2 101C417 101 404 101 391 101C378 101 365 101 352 101C339 101 326 101 313 101C300 101 287 101 274 101C261 101 248 101 235 101C222 101 209 101 196 101C183 101 170 101 156.8 101C143.7 101 130.3 101 117.2 101C104 101 91 101 78 101C65 101 52 101 39 101C26 101 13 101 6.5 101L0 101Z" fill="#985dcf"></path><path d="M0 35L6.5 40C13 45 26 55 39 58.5C52 62 65 59 78 54.5C91 50 104 44 117.2 45.5C130.3 47 143.7 56 156.8 61.2C170 66.3 183 67.7 196 68.5C209 69.3 222 69.7 235 67.2C248 64.7 261 59.3 274 54.2C287 49 300 44 313 45.7C326 47.3 339 55.7 352 60.2C365 64.7 378 65.3 391 67.5C404 69.7 417 73.3 430.2 71C443.3 68.7 456.7 60.3 469.8 53.7C483 47 496 42 509 42.5C522 43 535 49 548 49C561 49 574 43 587 46.8C600 50.7 613 64.3 626 68.2C639 72 652 66 665 61.5C678 57 691 54 704 49.8C717 45.7 730 40.3 743.2 39.3C756.3 38.3 769.7 41.7 782.8 43.5C796 45.3 809 45.7 822 43.7C835 41.7 848 37.3 861 37C874 36.7 887 40.3 893.5 42.2L900 44L900 101L893.5 101C887 101 874 101 861 101C848 101 835 101 822 101C809 101 796 101 782.8 101C769.7 101 756.3 101 743.2 101C730 101 717 101 704 101C691 101 678 101 665 101C652 101 639 101 626 101C613 101 600 101 587 101C574 101 561 101 548 101C535 101 522 101 509 101C496 101 483 101 469.8 101C456.7 101 443.3 101 430.2 101C417 101 404 101 391 101C378 101 365 101 352 101C339 101 326 101 313 101C300 101 287 101 274 101C261 101 248 101 235 101C222 101 209 101 196 101C183 101 170 101 156.8 101C143.7 101 130.3 101 117.2 101C104 101 91 101 78 101C65 101 52 101 39 101C26 101 13 101 6.5 101L0 101Z" fill="#c084fc"></path><path d="M0 66L6.5 64C13 62 26 58 39 56C52 54 65 54 78 56.8C91 59.7 104 65.3 117.2 68.2C130.3 71 143.7 71 156.8 67.5C170 64 183 57 196 55.7C209 54.3 222 58.7 235 64.7C248 70.7 261 78.3 274 76.5C287 74.7 300 63.3 313 63.7C326 64 339 76 352 78.7C365 81.3 378 74.7 391 69C404 63.3 417 58.7 430.2 58.7C443.3 58.7 456.7 63.3 469.8 68.7C483 74 496 80 509 79.8C522 79.7 535 73.3 548 68.2C561 63 574 59 587 58.3C600 57.7 613 60.3 626 64.2C639 68 652 73 665 74.5C678 76 691 74 704 69.7C717 65.3 730 58.7 743.2 55.5C756.3 52.3 769.7 52.7 782.8 55.2C796 57.7 809 62.3 822 67C835 71.7 848 76.3 861 79.7C874 83 887 85 893.5 86L900 87L900 101L893.5 101C887 101 874 101 861 101C848 101 835 101 822 101C809 101 796 101 782.8 101C769.7 101 756.3 101 743.2 101C730 101 717 101 704 101C691 101 678 101 665 101C652 101 639 101 626 101C613 101 600 101 587 101C574 101 561 101 548 101C535 101 522 101 509 101C496 101 483 101 469.8 101C456.7 101 443.3 101 430.2 101C417 101 404 101 391 101C378 101 365 101 352 101C339 101 326 101 313 101C300 101 287 101 274 101C261 101 248 101 235 101C222 101 209 101 196 101C183 101 170 101 156.8 101C143.7 101 130.3 101 117.2 101C104 101 91 101 78 101C65 101 52 101 39 101C26 101 13 101 6.5 101L0 101Z" fill="#985dcf"></path><path d="M0 93L6.5 90.3C13 87.7 26 82.3 39 83C52 83.7 65 90.3 78 91.8C91 93.3 104 89.7 117.2 86.5C130.3 83.3 143.7 80.7 156.8 78C170 75.3 183 72.7 196 73.3C209 74 222 78 235 79.7C248 81.3 261 80.7 274 79.3C287 78 300 76 313 74.7C326 73.3 339 72.7 352 73.7C365 74.7 378 77.3 391 77.3C404 77.3 417 74.7 430.2 76.7C443.3 78.7 456.7 85.3 469.8 85.5C483 85.7 496 79.3 509 80.3C522 81.3 535 89.7 548 92.2C561 94.7 574 91.3 587 89C600 86.7 613 85.3 626 86C639 86.7 652 89.3 665 91.3C678 93.3 691 94.7 704 91.8C717 89 730 82 743.2 80.7C756.3 79.3 769.7 83.7 782.8 84.3C796 85 809 82 822 82.3C835 82.7 848 86.3 861 84.3C874 82.3 887 74.7 893.5 70.8L900 67L900 101L893.5 101C887 101 874 101 861 101C848 101 835 101 822 101C809 101 796 101 782.8 101C769.7 101 756.3 101 743.2 101C730 101 717 101 704 101C691 101 678 101 665 101C652 101 639 101 626 101C613 101 600 101 587 101C574 101 561 101 548 101C535 101 522 101 509 101C496 101 483 101 469.8 101C456.7 101 443.3 101 430.2 101C417 101 404 101 391 101C378 101 365 101 352 101C339 101 326 101 313 101C300 101 287 101 274 101C261 101 248 101 235 101C222 101 209 101 196 101C183 101 170 101 156.8 101C143.7 101 130.3 101 117.2 101C104 101 91 101 78 101C65 101 52 101 39 101C26 101 13 101 6.5 101L0 101Z" fill="#581c87"></path></svg>