<svg id="visual" viewBox="0 0 1400 200" width="1400" height="200" xmlns="http://www.w3.org/2000/svg" xmlns:xlink="http://www.w3.org/1999/xlink" version="1.1"><path d="M0 16L15.5 26.2C31 36.3 62 56.7 93.2 75.5C124.3 94.3 155.7 111.7 186.8 112.2C218 112.7 249 96.3 280 87.7C311 79 342 78 373.2 88.8C404.3 99.7 435.7 122.3 466.8 125.5C498 128.7 529 112.3 560 101.2C591 90 622 84 653.2 88C684.3 92 715.7 106 746.8 95.3C778 84.7 809 49.3 840 51.2C871 53 902 92 933.2 104C964.3 116 995.7 101 1026.8 87.8C1058 74.7 1089 63.3 1120 58.8C1151 54.3 1182 56.7 1213.2 72C1244.3 87.3 1275.7 115.7 1306.8 111.2C1338 106.7 1369 69.3 1384.5 50.7L1400 32L1400 201L1384.5 201C1369 201 1338 201 1306.8 201C1275.7 201 1244.3 201 1213.2 201C1182 201 1151 201 1120 201C1089 201 1058 201 1026.8 201C995.7 201 964.3 201 933.2 201C902 201 871 201 840 201C809 201 778 201 746.8 201C715.7 201 684.3 201 653.2 201C622 201 591 201 560 201C529 201 498 201 466.8 201C435.7 201 404.3 201 373.2 201C342 201 311 201 280 201C249 201 218 201 186.8 201C155.7 201 124.3 201 93.2 201C62 201 31 201 15.5 201L0 201Z" fill="#581c87"></path><path d="M0 46L15.5 56.8C31 67.7 62 89.3 93.2 88.5C124.3 87.7 155.7 64.3 186.8 60.3C218 56.3 249 71.7 280 83.3C311 95 342 103 373.2 106.8C404.3 110.7 435.7 110.3 466.8 114.8C498 119.3 529 128.7 560 117C591 105.3 622 72.7 653.2 74.3C684.3 76 715.7 112 746.8 120.5C778 129 809 110 840 100.2C871 90.3 902 89.7 933.2 96.5C964.3 103.3 995.7 117.7 1026.8 128C1058 138.3 1089 144.7 1120 134.2C1151 123.7 1182 96.3 1213.2 87C1244.3 77.7 1275.7 86.3 1306.8 81C1338 75.7 1369 56.3 1384.5 46.7L1400 37L1400 201L1384.5 201C1369 201 1338 201 1306.8 201C1275.7 201 1244.3 201 1213.2 201C1182 201 1151 201 1120 201C1089 201 1058 201 1026.8 201C995.7 201 964.3 201 933.2 201C902 201 871 201 840 201C809 201 778 201 746.8 201C715.7 201 684.3 201 653.2 201C622 201 591 201 560 201C529 201 498 201 466.8 201C435.7 201 404.3 201 373.2 201C342 201 311 201 280 201C249 201 218 201 186.8 201C155.7 201 124.3 201 93.2 201C62 201 31 201 15.5 201L0 201Z" fill="#8b50c0"></path><path d="M0 100L15.5 94.3C31 88.7 62 77.3 93.2 80.2C124.3 83 155.7 100 186.8 108.5C218 117 249 117 280 122.7C311 128.3 342 139.7 373.2 146.8C404.3 154 435.7 157 466.8 156.7C498 156.3 529 152.7 560 150.8C591 149 622 149 653.2 148.3C684.3 147.7 715.7 146.3 746.8 146.5C778 146.7 809 148.3 840 150.2C871 152 902 154 933.2 147.3C964.3 140.7 995.7 125.3 1026.8 124.3C1058 123.3 1089 136.7 1120 138C1151 139.3 1182 128.7 1213.2 131.3C1244.3 134 1275.7 150 1306.8 148C1338 146 1369 126 1384.5 116L1400 106L1400 201L1384.5 201C1369 201 1338 201 1306.8 201C1275.7 201 1244.3 201 1213.2 201C1182 201 1151 201 1120 201C1089 201 1058 201 1026.8 201C995.7 201 964.3 201 933.2 201C902 201 871 201 840 201C809 201 778 201 746.8 201C715.7 201 684.3 201 653.2 201C622 201 591 201 560 201C529 201 498 201 466.8 201C435.7 201 404.3 201 373.2 201C342 201 311 201 280 201C249 201 218 201 186.8 201C155.7 201 124.3 201 93.2 201C62 201 31 201 15.5 201L0 201Z" fill="#c084fc"></path><path d="M0 132L15.5 127.8C31 123.7 62 115.3 93.2 117.7C124.3 120 155.7 133 186.8 133.2C218 133.3 249 120.7 280 117.2C311 113.7 342 119.3 373.2 124.8C404.3 130.3 435.7 135.7 466.8 140.8C498 146 529 151 560 143.5C591 136 622 116 653.2 107.7C684.3 99.3 715.7 102.7 746.8 113.3C778 124 809 142 840 148.8C871 155.7 902 151.3 933.2 141.3C964.3 131.3 995.7 115.7 1026.8 113.7C1058 111.7 1089 123.3 1120 131.7C1151 140 1182 145 1213.2 141.3C1244.3 137.7 1275.7 125.3 1306.8 123.7C1338 122 1369 131 1384.5 135.5L1400 140L1400 201L1384.5 201C1369 201 1338 201 1306.8 201C1275.7 201 1244.3 201 1213.2 201C1182 201 1151 201 1120 201C1089 201 1058 201 1026.8 201C995.7 201 964.3 201 933.2 201C902 201 871 201 840 201C809 201 778 201 746.8 201C715.7 201 684.3 201 653.2 201C622 201 591 201 560 201C529 201 498 201 466.8 201C435.7 201 404.3 201 373.2 201C342 201 311 201 280 201C249 201 218 201 186.8 201C155.7 201 124.3 201 93.2 201C62 201 31 201 15.5 201L0 201Z" fill="#c084fc"></path><path d="M0 174L15.5 167.3C31 160.7 62 147.3 93.2 147C124.3 146.7 155.7 159.3 186.8 160.8C218 162.3 249 152.7 280 143.7C311 134.7 342 126.3 373.2 126.2C404.3 126 435.7 134 466.8 138.5C498 143 529 144 560 145.3C591 146.7 622 148.3 653.2 145.2C684.3 142 715.7 134 746.8 129.7C778 125.3 809 124.7 840 124.2C871 123.7 902 123.3 933.2 125C964.3 126.7 995.7 130.3 1026.8 136C1058 141.7 1089 149.3 1120 155C1151 160.7 1182 164.3 1213.2 160.8C1244.3 157.3 1275.7 146.7 1306.8 138.2C1338 129.7 1369 123.3 1384.5 120.2L1400 117L1400 201L1384.5 201C1369 201 1338 201 1306.8 201C1275.7 201 1244.3 201 1213.2 201C1182 201 1151 201 1120 201C1089 201 1058 201 1026.8 201C995.7 201 964.3 201 933.2 201C902 201 871 201 840 201C809 201 778 201 746.8 201C715.7 201 684.3 201 653.2 201C622 201 591 201 560 201C529 201 498 201 466.8 201C435.7 201 404.3 201 373.2 201C342 201 311 201 280 201C249 201 218 201 186.8 201C155.7 201 124.3 201 93.2 201C62 201 31 201 15.5 201L0 201Z" fill="#8b50c0"></path><path d="M0 190L15.5 186C31 182 62 174 93.2 168.8C124.3 163.7 155.7 161.3 186.8 164C218 166.7 249 174.3 280 179.2C311 184 342 186 373.2 182.2C404.3 178.3 435.7 168.7 466.8 161.8C498 155 529 151 560 155.7C591 160.3 622 173.7 653.2 173.8C684.3 174 715.7 161 746.8 158C778 155 809 162 840 169.8C871 177.7 902 186.3 933.2 189.7C964.3 193 995.7 191 1026.8 188.3C1058 185.7 1089 182.3 1120 176.8C1151 171.3 1182 163.7 1213.2 166.3C1244.3 169 1275.7 182 1306.8 185.5C1338 189 1369 183 1384.5 180L1400 177L1400 201L1384.5 201C1369 201 1338 201 1306.8 201C1275.7 201 1244.3 201 1213.2 201C1182 201 1151 201 1120 201C1089 201 1058 201 1026.8 201C995.7 201 964.3 201 933.2 201C902 201 871 201 840 201C809 201 778 201 746.8 201C715.7 201 684.3 201 653.2 201C622 201 591 201 560 201C529 201 498 201 466.8 201C435.7 201 404.3 201 373.2 201C342 201 311 201 280 201C249 201 218 201 186.8 201C155.7 201 124.3 201 93.2 201C62 201 31 201 15.5 201L0 201Z" fill="#581c87"></path></svg>