<svg id="visual" viewBox="0 0 900 100" width="900" height="100" xmlns="http://www.w3.org/2000/svg" xmlns:xlink="http://www.w3.org/1999/xlink" version="1.1"><path d="M0 92L6.5 90.7C13 89.3 26 86.7 39 82.3C52 78 65 72 78 68.5C91 65 104 64 117.2 62.5C130.3 61 143.7 59 156.8 62.8C170 66.7 183 76.3 196 83.2C209 90 222 94 235 93.5C248 93 261 88 274 86.3C287 84.7 300 86.3 313 84.7C326 83 339 78 352 76C365 74 378 75 391 74.5C404 74 417 72 430.2 66.7C443.3 61.3 456.7 52.7 469.8 53.2C483 53.7 496 63.3 509 66.8C522 70.3 535 67.7 548 67.3C561 67 574 69 587 68.5C600 68 613 65 626 61.7C639 58.3 652 54.7 665 59.7C678 64.7 691 78.3 704 78.5C717 78.7 730 65.3 743.2 57C756.3 48.7 769.7 45.3 782.8 49.7C796 54 809 66 822 68.8C835 71.7 848 65.3 861 66.3C874 67.3 887 75.7 893.5 79.8L900 84L900 0L893.5 0C887 0 874 0 861 0C848 0 835 0 822 0C809 0 796 0 782.8 0C769.7 0 756.3 0 743.2 0C730 0 717 0 704 0C691 0 678 0 665 0C652 0 639 0 626 0C613 0 600 0 587 0C574 0 561 0 548 0C535 0 522 0 509 0C496 0 483 0 469.8 0C456.7 0 443.3 0 430.2 0C417 0 404 0 391 0C378 0 365 0 352 0C339 0 326 0 313 0C300 0 287 0 274 0C261 0 248 0 235 0C222 0 209 0 196 0C183 0 170 0 156.8 0C143.7 0 130.3 0 117.2 0C104 0 91 0 78 0C65 0 52 0 39 0C26 0 13 0 6.5 0L0 0Z" fill="#581c87"></path><path d="M0 44L6.5 42.3C13 40.7 26 37.3 39 40.7C52 44 65 54 78 55C91 56 104 48 117.2 42.5C130.3 37 143.7 34 156.8 38.7C170 43.3 183 55.7 196 56.7C209 57.7 222 47.3 235 46.5C248 45.7 261 54.3 274 58.8C287 63.3 300 63.7 313 66C326 68.3 339 72.7 352 69.8C365 67 378 57 391 52C404 47 417 47 430.2 46.5C443.3 46 456.7 45 469.8 43.5C483 42 496 40 509 38C522 36 535 34 548 33.3C561 32.7 574 33.3 587 37.2C600 41 613 48 626 47.5C639 47 652 39 665 35.2C678 31.3 691 31.7 704 33.2C717 34.7 730 37.3 743.2 43C756.3 48.7 769.7 57.3 782.8 64.3C796 71.3 809 76.7 822 71.7C835 66.7 848 51.3 861 44.5C874 37.7 887 39.3 893.5 40.2L900 41L900 0L893.5 0C887 0 874 0 861 0C848 0 835 0 822 0C809 0 796 0 782.8 0C769.7 0 756.3 0 743.2 0C730 0 717 0 704 0C691 0 678 0 665 0C652 0 639 0 626 0C613 0 600 0 587 0C574 0 561 0 548 0C535 0 522 0 509 0C496 0 483 0 469.8 0C456.7 0 443.3 0 430.2 0C417 0 404 0 391 0C378 0 365 0 352 0C339 0 326 0 313 0C300 0 287 0 274 0C261 0 248 0 235 0C222 0 209 0 196 0C183 0 170 0 156.8 0C143.7 0 130.3 0 117.2 0C104 0 91 0 78 0C65 0 52 0 39 0C26 0 13 0 6.5 0L0 0Z" fill="#985dcf"></path><path d="M0 52L6.5 48C13 44 26 36 39 36C52 36 65 44 78 47.8C91 51.7 104 51.3 117.2 49.5C130.3 47.7 143.7 44.3 156.8 41.8C170 39.3 183 37.7 196 37.3C209 37 222 38 235 35.2C248 32.3 261 25.7 274 29.7C287 33.7 300 48.3 313 54.7C326 61 339 59 352 53.3C365 47.7 378 38.3 391 39.7C404 41 417 53 430.2 54.3C443.3 55.7 456.7 46.3 469.8 40.5C483 34.7 496 32.3 509 29.8C522 27.3 535 24.7 548 30.5C561 36.3 574 50.7 587 53.7C600 56.7 613 48.3 626 44.8C639 41.3 652 42.7 665 41.8C678 41 691 38 704 41C717 44 730 53 743.2 53.2C756.3 53.3 769.7 44.7 782.8 40.2C796 35.7 809 35.3 822 37.2C835 39 848 43 861 41.3C874 39.7 887 32.3 893.5 28.7L900 25L900 0L893.5 0C887 0 874 0 861 0C848 0 835 0 822 0C809 0 796 0 782.8 0C769.7 0 756.3 0 743.2 0C730 0 717 0 704 0C691 0 678 0 665 0C652 0 639 0 626 0C613 0 600 0 587 0C574 0 561 0 548 0C535 0 522 0 509 0C496 0 483 0 469.8 0C456.7 0 443.3 0 430.2 0C417 0 404 0 391 0C378 0 365 0 352 0C339 0 326 0 313 0C300 0 287 0 274 0C261 0 248 0 235 0C222 0 209 0 196 0C183 0 170 0 156.8 0C143.7 0 130.3 0 117.2 0C104 0 91 0 78 0C65 0 52 0 39 0C26 0 13 0 6.5 0L0 0Z" fill="#c084fc"></path><path d="M0 46L6.5 45.5C13 45 26 44 39 40.5C52 37 65 31 78 28C91 25 104 25 117.2 23.3C130.3 21.7 143.7 18.3 156.8 16.5C170 14.7 183 14.3 196 17.2C209 20 222 26 235 26.5C248 27 261 22 274 18.2C287 14.3 300 11.7 313 15.2C326 18.7 339 28.3 352 33.2C365 38 378 38 391 39.2C404 40.3 417 42.7 430.2 42.7C443.3 42.7 456.7 40.3 469.8 39.8C483 39.3 496 40.7 509 39.7C522 38.7 535 35.3 548 34.2C561 33 574 34 587 33.7C600 33.3 613 31.7 626 29.3C639 27 652 24 665 25.8C678 27.7 691 34.3 704 37.5C717 40.7 730 40.3 743.2 36.8C756.3 33.3 769.7 26.7 782.8 22.7C796 18.7 809 17.3 822 22C835 26.7 848 37.3 861 40.5C874 43.7 887 39.3 893.5 37.2L900 35L900 0L893.5 0C887 0 874 0 861 0C848 0 835 0 822 0C809 0 796 0 782.8 0C769.7 0 756.3 0 743.2 0C730 0 717 0 704 0C691 0 678 0 665 0C652 0 639 0 626 0C613 0 600 0 587 0C574 0 561 0 548 0C535 0 522 0 509 0C496 0 483 0 469.8 0C456.7 0 443.3 0 430.2 0C417 0 404 0 391 0C378 0 365 0 352 0C339 0 326 0 313 0C300 0 287 0 274 0C261 0 248 0 235 0C222 0 209 0 196 0C183 0 170 0 156.8 0C143.7 0 130.3 0 117.2 0C104 0 91 0 78 0C65 0 52 0 39 0C26 0 13 0 6.5 0L0 0Z" fill="#985dcf"></path><path d="M0 19L6.5 19.3C13 19.7 26 20.3 39 19.3C52 18.3 65 15.7 78 16.3C91 17 104 21 117.2 22.2C130.3 23.3 143.7 21.7 156.8 17.5C170 13.3 183 6.7 196 6.7C209 6.7 222 13.3 235 16.3C248 19.3 261 18.7 274 19.3C287 20 300 22 313 22.7C326 23.3 339 22.7 352 23.2C365 23.7 378 25.3 391 25.8C404 26.3 417 25.7 430.2 22C443.3 18.3 456.7 11.7 469.8 9.8C483 8 496 11 509 10.2C522 9.3 535 4.7 548 2.8C561 1 574 2 587 7.3C600 12.7 613 22.3 626 21.8C639 21.3 652 10.7 665 7.3C678 4 691 8 704 9.7C717 11.3 730 10.7 743.2 9.8C756.3 9 769.7 8 782.8 10C796 12 809 17 822 16C835 15 848 8 861 5.8C874 3.7 887 6.3 893.5 7.7L900 9L900 0L893.5 0C887 0 874 0 861 0C848 0 835 0 822 0C809 0 796 0 782.8 0C769.7 0 756.3 0 743.2 0C730 0 717 0 704 0C691 0 678 0 665 0C652 0 639 0 626 0C613 0 600 0 587 0C574 0 561 0 548 0C535 0 522 0 509 0C496 0 483 0 469.8 0C456.7 0 443.3 0 430.2 0C417 0 404 0 391 0C378 0 365 0 352 0C339 0 326 0 313 0C300 0 287 0 274 0C261 0 248 0 235 0C222 0 209 0 196 0C183 0 170 0 156.8 0C143.7 0 130.3 0 117.2 0C104 0 91 0 78 0C65 0 52 0 39 0C26 0 13 0 6.5 0L0 0Z" fill="#581c87"></path></svg>