<svg id="visual" viewBox="0 0 900 100" width="900" height="100" xmlns="http://www.w3.org/2000/svg" xmlns:xlink="http://www.w3.org/1999/xlink" version="1.1"><path d="M0 42L39 42L39 62L78 62L78 89L117 89L117 64L157 64L157 50L196 50L196 87L235 87L235 33L274 33L274 92L313 92L313 93L352 93L352 85L391 85L391 71L430 71L430 93L470 93L470 44L509 44L509 59L548 59L548 29L587 29L587 54L626 54L626 47L665 47L665 39L704 39L704 50L743 50L743 28L783 28L783 48L822 48L822 83L861 83L861 80L900 80L900 23L900 0L900 0L861 0L861 0L822 0L822 0L783 0L783 0L743 0L743 0L704 0L704 0L665 0L665 0L626 0L626 0L587 0L587 0L548 0L548 0L509 0L509 0L470 0L470 0L430 0L430 0L391 0L391 0L352 0L352 0L313 0L313 0L274 0L274 0L235 0L235 0L196 0L196 0L157 0L157 0L117 0L117 0L78 0L78 0L39 0L39 0L0 0Z" fill="#581c87"></path><path d="M0 86L39 86L39 35L78 35L78 54L117 54L117 87L157 87L157 53L196 53L196 58L235 58L235 46L274 46L274 20L313 20L313 57L352 57L352 44L391 44L391 63L430 63L430 72L470 72L470 48L509 48L509 40L548 40L548 36L587 36L587 40L626 40L626 69L665 69L665 49L704 49L704 79L743 79L743 80L783 80L783 61L822 61L822 78L861 78L861 62L900 62L900 72L900 0L900 0L861 0L861 0L822 0L822 0L783 0L783 0L743 0L743 0L704 0L704 0L665 0L665 0L626 0L626 0L587 0L587 0L548 0L548 0L509 0L509 0L470 0L470 0L430 0L430 0L391 0L391 0L352 0L352 0L313 0L313 0L274 0L274 0L235 0L235 0L196 0L196 0L157 0L157 0L117 0L117 0L78 0L78 0L39 0L39 0L0 0Z" fill="#7c41af"></path><path d="M0 24L39 24L39 71L78 71L78 66L117 66L117 65L157 65L157 24L196 24L196 20L235 20L235 76L274 76L274 68L313 68L313 69L352 69L352 76L391 76L391 60L430 60L430 31L470 31L470 35L509 35L509 45L548 45L548 48L587 48L587 50L626 50L626 33L665 33L665 39L704 39L704 33L743 33L743 54L783 54L783 35L822 35L822 33L861 33L861 39L900 39L900 54L900 0L900 0L861 0L861 0L822 0L822 0L783 0L783 0L743 0L743 0L704 0L704 0L665 0L665 0L626 0L626 0L587 0L587 0L548 0L548 0L509 0L509 0L470 0L470 0L430 0L430 0L391 0L391 0L352 0L352 0L313 0L313 0L274 0L274 0L235 0L235 0L196 0L196 0L157 0L157 0L117 0L117 0L78 0L78 0L39 0L39 0L0 0Z" fill="#a166d9"></path><path d="M0 20L39 20L39 63L78 63L78 51L117 51L117 14L157 14L157 30L196 30L196 38L235 38L235 32L274 32L274 43L313 43L313 21L352 21L352 49L391 49L391 30L430 30L430 42L470 42L470 22L509 22L509 38L548 38L548 47L587 47L587 35L626 35L626 56L665 56L665 14L704 14L704 33L743 33L743 25L783 25L783 37L822 37L822 65L861 65L861 47L900 47L900 36L900 0L900 0L861 0L861 0L822 0L822 0L783 0L783 0L743 0L743 0L704 0L704 0L665 0L665 0L626 0L626 0L587 0L587 0L548 0L548 0L509 0L509 0L470 0L470 0L430 0L430 0L391 0L391 0L352 0L352 0L313 0L313 0L274 0L274 0L235 0L235 0L196 0L196 0L157 0L157 0L117 0L117 0L78 0L78 0L39 0L39 0L0 0Z" fill="#c084fc"></path><path d="M0 35L39 35L39 52L78 52L78 22L117 22L117 53L157 53L157 39L196 39L196 46L235 46L235 19L274 19L274 19L313 19L313 35L352 35L352 23L391 23L391 39L430 39L430 13L470 13L470 51L509 51L509 48L548 48L548 51L587 51L587 52L626 52L626 16L665 16L665 15L704 15L704 42L743 42L743 30L783 30L783 20L822 20L822 20L861 20L861 15L900 15L900 23L900 0L900 0L861 0L861 0L822 0L822 0L783 0L783 0L743 0L743 0L704 0L704 0L665 0L665 0L626 0L626 0L587 0L587 0L548 0L548 0L509 0L509 0L470 0L470 0L430 0L430 0L391 0L391 0L352 0L352 0L313 0L313 0L274 0L274 0L235 0L235 0L196 0L196 0L157 0L157 0L117 0L117 0L78 0L78 0L39 0L39 0L0 0Z" fill="#c084fc"></path><path d="M0 35L39 35L39 25L78 25L78 20L117 20L117 36L157 36L157 6L196 6L196 23L235 23L235 42L274 42L274 35L313 35L313 19L352 19L352 38L391 38L391 19L430 19L430 14L470 14L470 7L509 7L509 10L548 10L548 19L587 19L587 27L626 27L626 11L665 11L665 7L704 7L704 43L743 43L743 10L783 10L783 38L822 38L822 8L861 8L861 29L900 29L900 23L900 0L900 0L861 0L861 0L822 0L822 0L783 0L783 0L743 0L743 0L704 0L704 0L665 0L665 0L626 0L626 0L587 0L587 0L548 0L548 0L509 0L509 0L470 0L470 0L430 0L430 0L391 0L391 0L352 0L352 0L313 0L313 0L274 0L274 0L235 0L235 0L196 0L196 0L157 0L157 0L117 0L117 0L78 0L78 0L39 0L39 0L0 0Z" fill="#a166d9"></path><path d="M0 21L39 21L39 20L78 20L78 7L117 7L117 21L157 21L157 10L196 10L196 5L235 5L235 5L274 5L274 22L313 22L313 15L352 15L352 19L391 19L391 28L430 28L430 6L470 6L470 15L509 15L509 29L548 29L548 12L587 12L587 11L626 11L626 11L665 11L665 18L704 18L704 32L743 32L743 20L783 20L783 17L822 17L822 16L861 16L861 22L900 22L900 23L900 0L900 0L861 0L861 0L822 0L822 0L783 0L783 0L743 0L743 0L704 0L704 0L665 0L665 0L626 0L626 0L587 0L587 0L548 0L548 0L509 0L509 0L470 0L470 0L430 0L430 0L391 0L391 0L352 0L352 0L313 0L313 0L274 0L274 0L235 0L235 0L196 0L196 0L157 0L157 0L117 0L117 0L78 0L78 0L39 0L39 0L0 0Z" fill="#7c41af"></path><path d="M0 3L39 3L39 0L78 0L78 17L117 17L117 0L157 0L157 20L196 20L196 14L235 14L235 14L274 14L274 17L313 17L313 9L352 9L352 10L391 10L391 12L430 12L430 7L470 7L470 8L509 8L509 2L548 2L548 1L587 1L587 17L626 17L626 6L665 6L665 4L704 4L704 9L743 9L743 17L783 17L783 1L822 1L822 17L861 17L861 0L900 0L900 21L900 0L900 0L861 0L861 0L822 0L822 0L783 0L783 0L743 0L743 0L704 0L704 0L665 0L665 0L626 0L626 0L587 0L587 0L548 0L548 0L509 0L509 0L470 0L470 0L430 0L430 0L391 0L391 0L352 0L352 0L313 0L313 0L274 0L274 0L235 0L235 0L196 0L196 0L157 0L157 0L117 0L117 0L78 0L78 0L39 0L39 0L0 0Z" fill="#581c87"></path></svg>