<svg id="visual" viewBox="0 0 900 150" width="900" height="150" xmlns="http://www.w3.org/2000/svg" xmlns:xlink="http://www.w3.org/1999/xlink" version="1.1"><path d="M0 135L6.5 125C13 115 26 95 39 83.8C52 72.7 65 70.3 78 79.8C91 89.3 104 110.7 117.2 121.2C130.3 131.7 143.7 131.3 156.8 127.5C170 123.7 183 116.3 196 113.7C209 111 222 113 235 106.5C248 100 261 85 274 81.8C287 78.7 300 87.3 313 93.3C326 99.3 339 102.7 352 105.5C365 108.3 378 110.7 391 115.2C404 119.7 417 126.3 430.2 122.2C443.3 118 456.7 103 469.8 93.3C483 83.7 496 79.3 509 76.3C522 73.3 535 71.7 548 78.7C561 85.7 574 101.3 587 103.2C600 105 613 93 626 89.3C639 85.7 652 90.3 665 89C678 87.7 691 80.3 704 88.5C717 96.7 730 120.3 743.2 132C756.3 143.7 769.7 143.3 782.8 138.7C796 134 809 125 822 112.7C835 100.3 848 84.7 861 79.7C874 74.7 887 80.3 893.5 83.2L900 86L900 0L893.5 0C887 0 874 0 861 0C848 0 835 0 822 0C809 0 796 0 782.8 0C769.7 0 756.3 0 743.2 0C730 0 717 0 704 0C691 0 678 0 665 0C652 0 639 0 626 0C613 0 600 0 587 0C574 0 561 0 548 0C535 0 522 0 509 0C496 0 483 0 469.8 0C456.7 0 443.3 0 430.2 0C417 0 404 0 391 0C378 0 365 0 352 0C339 0 326 0 313 0C300 0 287 0 274 0C261 0 248 0 235 0C222 0 209 0 196 0C183 0 170 0 156.8 0C143.7 0 130.3 0 117.2 0C104 0 91 0 78 0C65 0 52 0 39 0C26 0 13 0 6.5 0L0 0Z" fill="#c084fc"></path><path d="M0 107L6.5 106.5C13 106 26 105 39 104C52 103 65 102 78 105C91 108 104 115 117.2 118.3C130.3 121.7 143.7 121.3 156.8 118.7C170 116 183 111 196 111C209 111 222 116 235 114.7C248 113.3 261 105.7 274 99.7C287 93.7 300 89.3 313 88.8C326 88.3 339 91.7 352 94.2C365 96.7 378 98.3 391 92C404 85.7 417 71.3 430.2 72.8C443.3 74.3 456.7 91.7 469.8 93.7C483 95.7 496 82.3 509 85.3C522 88.3 535 107.7 548 112C561 116.3 574 105.7 587 99C600 92.3 613 89.7 626 92C639 94.3 652 101.7 665 100C678 98.3 691 87.7 704 79.2C717 70.7 730 64.3 743.2 67.2C756.3 70 769.7 82 782.8 85.5C796 89 809 84 822 81.2C835 78.3 848 77.7 861 82.8C874 88 887 99 893.5 104.5L900 110L900 0L893.5 0C887 0 874 0 861 0C848 0 835 0 822 0C809 0 796 0 782.8 0C769.7 0 756.3 0 743.2 0C730 0 717 0 704 0C691 0 678 0 665 0C652 0 639 0 626 0C613 0 600 0 587 0C574 0 561 0 548 0C535 0 522 0 509 0C496 0 483 0 469.8 0C456.7 0 443.3 0 430.2 0C417 0 404 0 391 0C378 0 365 0 352 0C339 0 326 0 313 0C300 0 287 0 274 0C261 0 248 0 235 0C222 0 209 0 196 0C183 0 170 0 156.8 0C143.7 0 130.3 0 117.2 0C104 0 91 0 78 0C65 0 52 0 39 0C26 0 13 0 6.5 0L0 0Z" fill="#ab6fe4"></path><path d="M0 95L6.5 95.8C13 96.7 26 98.3 39 99.8C52 101.3 65 102.7 78 101C91 99.3 104 94.7 117.2 93.8C130.3 93 143.7 96 156.8 88C170 80 183 61 196 51.3C209 41.7 222 41.3 235 42C248 42.7 261 44.3 274 54.7C287 65 300 84 313 88.5C326 93 339 83 352 75.8C365 68.7 378 64.3 391 67.5C404 70.7 417 81.3 430.2 83C443.3 84.7 456.7 77.3 469.8 79C483 80.7 496 91.3 509 91C522 90.7 535 79.3 548 76.3C561 73.3 574 78.7 587 76.3C600 74 613 64 626 58.8C639 53.7 652 53.3 665 60.8C678 68.3 691 83.7 704 91.5C717 99.3 730 99.7 743.2 97.3C756.3 95 769.7 90 782.8 82.2C796 74.3 809 63.7 822 57.7C835 51.7 848 50.3 861 50.8C874 51.3 887 53.7 893.5 54.8L900 56L900 0L893.5 0C887 0 874 0 861 0C848 0 835 0 822 0C809 0 796 0 782.8 0C769.7 0 756.3 0 743.2 0C730 0 717 0 704 0C691 0 678 0 665 0C652 0 639 0 626 0C613 0 600 0 587 0C574 0 561 0 548 0C535 0 522 0 509 0C496 0 483 0 469.8 0C456.7 0 443.3 0 430.2 0C417 0 404 0 391 0C378 0 365 0 352 0C339 0 326 0 313 0C300 0 287 0 274 0C261 0 248 0 235 0C222 0 209 0 196 0C183 0 170 0 156.8 0C143.7 0 130.3 0 117.2 0C104 0 91 0 78 0C65 0 52 0 39 0C26 0 13 0 6.5 0L0 0Z" fill="#955acc"></path><path d="M0 29L6.5 31C13 33 26 37 39 38C52 39 65 37 78 37.3C91 37.7 104 40.3 117.2 41.8C130.3 43.3 143.7 43.7 156.8 44C170 44.3 183 44.7 196 50.7C209 56.7 222 68.3 235 66.3C248 64.3 261 48.7 274 44.5C287 40.3 300 47.7 313 49C326 50.3 339 45.7 352 41.7C365 37.7 378 34.3 391 40.7C404 47 417 63 430.2 70.3C443.3 77.7 456.7 76.3 469.8 75.8C483 75.3 496 75.7 509 77.2C522 78.7 535 81.3 548 73C561 64.7 574 45.3 587 44.3C600 43.3 613 60.7 626 69C639 77.3 652 76.7 665 72.5C678 68.3 691 60.7 704 60C717 59.3 730 65.7 743.2 61.5C756.3 57.3 769.7 42.7 782.8 35.7C796 28.7 809 29.3 822 36.2C835 43 848 56 861 64.7C874 73.3 887 77.7 893.5 79.8L900 82L900 0L893.5 0C887 0 874 0 861 0C848 0 835 0 822 0C809 0 796 0 782.8 0C769.7 0 756.3 0 743.2 0C730 0 717 0 704 0C691 0 678 0 665 0C652 0 639 0 626 0C613 0 600 0 587 0C574 0 561 0 548 0C535 0 522 0 509 0C496 0 483 0 469.8 0C456.7 0 443.3 0 430.2 0C417 0 404 0 391 0C378 0 365 0 352 0C339 0 326 0 313 0C300 0 287 0 274 0C261 0 248 0 235 0C222 0 209 0 196 0C183 0 170 0 156.8 0C143.7 0 130.3 0 117.2 0C104 0 91 0 78 0C65 0 52 0 39 0C26 0 13 0 6.5 0L0 0Z" fill="#8146b4"></path><path d="M0 50L6.5 47C13 44 26 38 39 35.5C52 33 65 34 78 32.5C91 31 104 27 117.2 24.8C130.3 22.7 143.7 22.3 156.8 22.7C170 23 183 24 196 25.2C209 26.3 222 27.7 235 32C248 36.3 261 43.7 274 47C287 50.3 300 49.7 313 44.8C326 40 339 31 352 31.5C365 32 378 42 391 45C404 48 417 44 430.2 39.7C443.3 35.3 456.7 30.7 469.8 29.8C483 29 496 32 509 38.2C522 44.3 535 53.7 548 56.3C561 59 574 55 587 48C600 41 613 31 626 30.7C639 30.3 652 39.7 665 45.7C678 51.7 691 54.3 704 50.3C717 46.3 730 35.7 743.2 31C756.3 26.3 769.7 27.7 782.8 29.2C796 30.7 809 32.3 822 30C835 27.7 848 21.3 861 20C874 18.7 887 22.3 893.5 24.2L900 26L900 0L893.5 0C887 0 874 0 861 0C848 0 835 0 822 0C809 0 796 0 782.8 0C769.7 0 756.3 0 743.2 0C730 0 717 0 704 0C691 0 678 0 665 0C652 0 639 0 626 0C613 0 600 0 587 0C574 0 561 0 548 0C535 0 522 0 509 0C496 0 483 0 469.8 0C456.7 0 443.3 0 430.2 0C417 0 404 0 391 0C378 0 365 0 352 0C339 0 326 0 313 0C300 0 287 0 274 0C261 0 248 0 235 0C222 0 209 0 196 0C183 0 170 0 156.8 0C143.7 0 130.3 0 117.2 0C104 0 91 0 78 0C65 0 52 0 39 0C26 0 13 0 6.5 0L0 0Z" fill="#6c319d"></path><path d="M0 10L6.5 11.7C13 13.3 26 16.7 39 16.3C52 16 65 12 78 11.5C91 11 104 14 117.2 13.7C130.3 13.3 143.7 9.7 156.8 11.7C170 13.7 183 21.3 196 25.2C209 29 222 29 235 27C248 25 261 21 274 22.8C287 24.7 300 32.3 313 33.5C326 34.7 339 29.3 352 27C365 24.7 378 25.3 391 26.5C404 27.7 417 29.3 430.2 29.5C443.3 29.7 456.7 28.3 469.8 25.2C483 22 496 17 509 15.3C522 13.7 535 15.3 548 20.2C561 25 574 33 587 31.8C600 30.7 613 20.3 626 15C639 9.7 652 9.3 665 7.7C678 6 691 3 704 4.5C717 6 730 12 743.2 18.5C756.3 25 769.7 32 782.8 33.2C796 34.3 809 29.7 822 23.5C835 17.3 848 9.7 861 10.2C874 10.7 887 19.3 893.5 23.7L900 28L900 0L893.5 0C887 0 874 0 861 0C848 0 835 0 822 0C809 0 796 0 782.8 0C769.7 0 756.3 0 743.2 0C730 0 717 0 704 0C691 0 678 0 665 0C652 0 639 0 626 0C613 0 600 0 587 0C574 0 561 0 548 0C535 0 522 0 509 0C496 0 483 0 469.8 0C456.7 0 443.3 0 430.2 0C417 0 404 0 391 0C378 0 365 0 352 0C339 0 326 0 313 0C300 0 287 0 274 0C261 0 248 0 235 0C222 0 209 0 196 0C183 0 170 0 156.8 0C143.7 0 130.3 0 117.2 0C104 0 91 0 78 0C65 0 52 0 39 0C26 0 13 0 6.5 0L0 0Z" fill="#581c87"></path></svg>