<svg id="visual" viewBox="0 0 900 900" width="900" height="900" xmlns="http://www.w3.org/2000/svg" xmlns:xlink="http://www.w3.org/1999/xlink" version="1.1"><g><g transform="translate(280 117)"><path d="M0 -94.6L81.9 -47.3L81.9 47.3L0 94.6L-81.9 47.3L-81.9 -47.3Z" stroke="#111827" fill="none" stroke-width="3"></path></g><g transform="translate(372 347)"><path d="M0 -71L61.5 -35.5L61.5 35.5L0 71L-61.5 35.5L-61.5 -35.5Z" stroke="#111827" fill="none" stroke-width="3"></path></g><g transform="translate(638 791)"><path d="M0 -65L56.3 -32.5L56.3 32.5L0 65L-56.3 32.5L-56.3 -32.5Z" stroke="#111827" fill="none" stroke-width="3"></path></g><g transform="translate(582 297)"><path d="M0 -53L45.9 -26.5L45.9 26.5L0 53L-45.9 26.5L-45.9 -26.5Z" stroke="#111827" fill="none" stroke-width="3"></path></g><g transform="translate(758 426)"><path d="M0 -44L38.1 -22L38.1 22L0 44L-38.1 22L-38.1 -22Z" stroke="#111827" fill="none" stroke-width="3"></path></g><g transform="translate(264 753)"><path d="M0 -57L49.4 -28.5L49.4 28.5L0 57L-49.4 28.5L-49.4 -28.5Z" stroke="#111827" fill="none" stroke-width="3"></path></g><g transform="translate(360 573)"><path d="M0 -59L51.1 -29.5L51.1 29.5L0 59L-51.1 29.5L-51.1 -29.5Z" stroke="#111827" fill="none" stroke-width="3"></path></g><g transform="translate(731 164)"><path d="M0 -51L44.2 -25.5L44.2 25.5L0 51L-44.2 25.5L-44.2 -25.5Z" stroke="#111827" fill="none" stroke-width="3"></path></g></g></svg>